<svg width="50" height="50" viewBox="0 0 50 50" fill="none" xmlns="http://www.w3.org/2000/svg">
<rect width="50" height="50" rx="25" fill="white"/>
<path d="M31.875 18.125H31.8875M18.75 12.5H31.25C34.7018 12.5 37.5 15.2982 37.5 18.75V31.25C37.5 34.7018 34.7018 37.5 31.25 37.5H18.75C15.2982 37.5 12.5 34.7018 12.5 31.25V18.75C12.5 15.2982 15.2982 12.5 18.75 12.5ZM30 24.2125C30.1543 25.2528 29.9766 26.3153 29.4922 27.2488C29.0078 28.1823 28.2414 28.9393 27.302 29.4121C26.3626 29.8849 25.2981 30.0495 24.2597 29.8824C23.2214 29.7153 22.2622 29.2251 21.5185 28.4815C20.7749 27.7378 20.2847 26.7786 20.1176 25.7403C19.9505 24.7019 20.1151 23.6374 20.5879 22.698C21.0607 21.7586 21.8177 20.9922 22.7512 20.5078C23.6847 20.0234 24.7472 19.8457 25.7875 20C26.8487 20.1574 27.8311 20.6518 28.5896 21.4104C29.3482 22.1689 29.8426 23.1513 30 24.2125Z" stroke="#9D87FF" stroke-width="3" stroke-linecap="round" stroke-linejoin="round"/>
</svg>
